<?xml version="1.0" standalone="no"?>
<!DOCTYPE svg PUBLIC "-//W3C//DTD SVG 20010904//EN"
 "http://www.w3.org/TR/2001/REC-SVG-20010904/DTD/svg10.dtd">
<svg version="1.0" xmlns="http://www.w3.org/2000/svg"
 width="512.000000pt" height="512.000000pt" viewBox="0 0 512.000000 512.000000"
 preserveAspectRatio="xMidYMid meet">
<metadata>
Created by potrace 1.11, written by Peter Selinger 2001-2013
</metadata>
<g transform="translate(0.000000,512.000000) scale(0.100000,-0.100000)"
fill="#000000" stroke="none">
<path d="M4 4751 c-2 -2 -4 -990 -4 -2195 l0 -2191 2557 0 2558 1 0 2194 0
2194 -2553 1 c-1405 0 -2556 -2 -2558 -4z m4626 -490 c1 -8 1 -3360 0 -3387
l0 -20 -2070 0 -2070 0 -1 55 c0 74 0 3196 0 3287 l1 70 2070 0 c1139 0 2070
-2 2070 -5z"/>
<path d="M1337 3411 l-148 -147 350 -350 c193 -192 351 -353 351 -358 0 -5
-157 -164 -349 -355 l-350 -346 152 -152 152 -153 503 503 502 502 -503 503
c-276 276 -504 502 -507 502 -3 -1 -71 -67 -153 -149z"/>
<path d="M2470 1585 l0 -245 715 0 715 0 0 245 0 245 -715 0 -715 0 0 -245z"/>
</g>
</svg>
